<?xml version="1.0" standalone="no"?>
<!DOCTYPE svg PUBLIC "-//W3C//DTD SVG 20010904//EN"
 "http://www.w3.org/TR/2001/REC-SVG-20010904/DTD/svg10.dtd">
<svg version="1.0" xmlns="http://www.w3.org/2000/svg"
 width="740.000000pt" height="740.000000pt" viewBox="0 0 740.000000 740.000000"
 preserveAspectRatio="xMidYMid meet">
<metadata>
Created by potrace 1.14, written by Peter Selinger 2001-2017
</metadata>
<g transform="translate(0.000000,740.000000) scale(0.100000,-0.100000)"
fill="#000000" stroke="none">
<path d="M2959 6446 c-2 -2 -33 -7 -69 -11 -36 -4 -76 -8 -90 -10 -14 -1 -50
-6 -80 -10 -30 -4 -68 -9 -85 -11 -63 -6 -131 -15 -155 -19 -14 -3 -54 -7 -90
-11 -36 -3 -74 -8 -85 -10 -11 -2 -40 -6 -65 -9 -25 -3 -61 -7 -80 -10 -19 -3
-59 -7 -89 -11 -30 -3 -57 -7 -61 -9 -3 -2 -5 -86 -4 -187 1 -101 5 -590 8
-1088 8 -1057 15 -2033 21 -2805 2 -302 4 -585 5 -628 l0 -78 130 3 130 4 0
-31 c1 -16 2 -77 3 -135 l2 -105 45 1 c25 1 83 3 130 4 l85 3 1 -129 c1 -71 2
-132 3 -136 0 -4 47 -5 104 -3 200 6 473 16 572 20 55 2 179 7 275 10 96 4
220 8 275 10 137 5 424 15 575 20 69 3 188 7 265 10 77 3 203 7 280 10 294 10
435 15 575 21 261 11 294 12 398 13 l104 1 -7 63 c-3 34 -8 69 -11 78 -3 10
-6 30 -9 45 -5 40 -35 234 -41 264 -8 41 -23 132 -29 175 -4 22 -9 54 -12 70
-2 17 -8 50 -12 75 l-6 45 -110 -3 -111 -2 -13 82 c-7 46 -15 97 -17 113 -10
82 -2 78 -123 72 l-109 -6 -7 46 c-3 24 -8 52 -10 61 -1 10 -8 51 -15 93 l-12
77 -32 -3 c-17 -2 -92 -6 -166 -10 -74 -3 -169 -8 -210 -10 -41 -3 -124 -7
-185 -10 -353 -17 -465 -23 -600 -30 -55 -3 -138 -8 -185 -10 -163 -8 -296
-15 -393 -21 l-99 -6 7 524 c3 288 8 647 10 798 4 310 16 1237 20 1555 2 116
4 311 5 435 l2 225 -33 -1 c-19 0 -61 -4 -94 -8 -33 -4 -78 -10 -100 -12 l-40
-5 3 150 3 150 -28 -5 c-15 -2 -39 -6 -53 -9 -14 -2 -52 -7 -85 -10 -33 -4
-69 -8 -81 -10 -21 -3 -21 0 -19 146 2 111 -1 149 -10 149 -6 0 -14 -2 -16 -4z"/>
</g>
</svg>
